<svg version="1.1" id="Layer_1" xmlns="http://www.w3.org/2000/svg" xmlns:xlink="http://www.w3.org/1999/xlink" x="0px" y="0px"
	 width="100%" viewBox="0 0 1024 1024" enable-background="new 0 0 1024 1024" xml:space="preserve">
<path fill="#161616" opacity="1.000000" stroke="none" 
	d="
M1024.000000,1025.000000 
	C683.635742,1025.000000 343.271515,1025.000000 2.452540,1024.531372 
	C1.996994,685.436707 2.009056,346.810669 1.874889,8.184687 
	C1.872842,3.015914 3.290843,1.884687 8.276498,1.886466 
	C344.736847,2.006494 681.197205,2.005464 1017.657532,1.896065 
	C1022.513794,1.894486 1024.135498,2.818926 1024.133301,8.119781 
	C1023.989258,347.079803 1024.001587,686.039917 1024.000000,1025.000000 
M644.576660,275.902374 
	C644.429810,274.939148 644.282959,273.975891 643.972778,272.087463 
	C643.972778,266.820465 643.972778,261.553467 643.972778,256.262695 
	C555.762085,256.262695 468.102264,256.262695 380.053925,256.262695 
	C380.053925,262.596222 380.053925,268.714813 380.142914,275.602356 
	C384.518951,278.524963 389.141083,278.974030 394.808136,276.899048 
	C395.876465,276.980042 396.944763,277.061035 398.124542,277.805389 
	C399.667358,279.305725 401.160797,281.680176 403.742371,277.927124 
	C404.498413,277.987366 405.254486,278.047577 406.135895,278.784332 
	C409.762573,279.175629 413.389252,279.566956 417.689911,279.921570 
	C418.130859,279.993164 418.571777,280.064758 419.209717,280.903473 
	C420.392670,281.013031 421.575653,281.122589 423.270020,281.011658 
	C423.811523,281.066589 424.353027,281.121552 425.013916,281.779175 
	C425.371246,281.608185 425.728546,281.437164 426.924927,281.353699 
	C427.717743,281.560486 428.512085,281.761536 429.303101,281.974976 
	C437.990509,284.318970 446.261597,287.320526 451.036316,296.559723 
	C452.311340,299.035553 453.586365,301.511383 455.032593,304.638214 
	C455.034912,305.086670 455.037231,305.535095 454.484833,306.434784 
	C454.943787,307.952271 455.402740,309.469727 456.026093,311.811676 
	C455.991943,313.210266 455.957794,314.608856 455.436340,315.989838 
	C455.436340,315.989838 454.948792,315.998779 454.380341,316.608093 
	C454.252350,318.087341 454.012482,319.566620 454.012268,321.045868 
	C453.994751,450.627289 453.991913,580.208679 454.035004,709.790100 
	C454.035583,711.526855 454.632568,713.263367 455.463470,715.015686 
	C455.634216,715.009644 455.804993,715.003540 456.114716,715.670349 
	C456.028595,716.117981 455.942474,716.565613 455.176453,717.147705 
	C455.188232,718.462769 455.200012,719.777771 455.192200,721.873901 
	C453.079529,732.674988 446.395416,739.996521 436.219666,742.828064 
	C424.549744,746.075439 412.465393,747.914185 400.491150,749.954285 
	C394.106506,751.041992 387.574341,751.263794 380.545319,751.929810 
	C381.074219,758.492310 381.543549,764.315308 382.212097,770.908936 
	C384.241394,771.270142 386.270508,771.945679 388.300049,771.947144 
	C462.778290,772.001160 537.256531,771.992554 611.734802,771.992554 
	C621.065430,771.992554 630.397766,772.082397 639.724731,771.896790 
	C641.146851,771.868530 642.543701,770.565063 643.962891,768.933105 
	C643.962891,762.834656 643.962891,756.736206 643.962891,751.452393 
	C628.924683,749.262756 614.425171,747.510315 600.073364,744.934570 
	C590.625793,743.239075 581.499390,740.167542 575.960999,730.463867 
	C574.347534,726.646423 572.734070,722.828918 570.958252,718.273926 
	C570.947754,717.526367 570.937195,716.778870 571.547913,715.460754 
	C571.688232,697.468506 571.852966,679.476257 571.890442,661.483765 
	C571.892151,660.661316 570.747375,659.836487 569.972961,658.217712 
	C570.027588,657.140930 570.082153,656.064087 570.902405,654.788879 
	C572.130432,650.114380 573.664795,645.422852 569.973206,640.145996 
	C570.027649,638.093079 570.082092,636.040222 570.861328,633.819214 
	C572.461853,631.353821 573.168701,628.983765 569.972351,626.217468 
	C570.026855,625.140747 570.081299,624.064026 570.881897,622.803345 
	C572.194092,619.740601 573.439331,616.683472 569.972107,613.185669 
	C570.027161,611.786194 570.082153,610.386719 570.898010,608.791626 
	C572.220337,604.763855 573.617432,600.731262 569.974854,596.086731 
	C570.029480,587.053467 570.084106,578.020264 570.828674,568.844849 
	C572.618225,566.946533 572.884277,565.265259 569.975586,563.186157 
	C570.030151,561.786438 570.084717,560.386719 570.907593,558.785156 
	C571.245178,558.260315 571.871277,557.738464 571.876892,557.210083 
	C571.957275,549.632141 572.010559,542.052429 571.890076,534.476013 
	C571.876953,533.645935 570.749634,532.833557 569.975891,531.344421 
	C570.029663,530.892029 570.083496,530.439636 570.906372,529.786621 
	C571.244385,529.261536 571.872009,528.739136 571.877014,528.210815 
	C571.955566,519.967041 572.005859,511.721741 571.890015,503.479218 
	C571.878357,502.649048 570.749817,501.834625 569.975647,500.265350 
	C570.029907,499.505951 570.084167,498.746552 570.907288,497.785858 
	C571.245483,497.260284 571.874023,496.737183 571.878540,496.208771 
	C571.954651,487.298553 572.001526,478.387054 571.888733,469.477936 
	C571.878174,468.648895 570.746338,467.834045 569.973083,466.343903 
	C570.027405,465.891724 570.081726,465.439514 570.905701,464.787476 
	C571.264771,463.094513 571.935486,461.401947 571.937500,459.708557 
	C571.995422,411.496246 571.997375,363.283905 571.941223,315.071594 
	C571.939270,313.365082 571.252747,311.659363 570.805786,309.206635 
	C570.913574,308.467041 571.021423,307.727417 571.805908,306.858063 
	C572.191711,304.900726 572.577576,302.943420 572.952209,300.255157 
	C576.203918,291.705780 582.816162,286.466125 591.155212,284.146210 
	C600.590027,281.521484 610.384399,280.189575 620.139343,278.830841 
	C620.457275,279.095642 620.775208,279.360413 621.093140,279.625153 
	C621.390015,279.145203 621.686951,278.665253 622.769165,277.975891 
	C623.851074,277.996582 624.932922,278.017273 626.456909,278.569275 
	C629.582153,279.734894 632.641235,280.512451 635.793457,276.859528 
	C637.196045,276.907349 638.598572,276.955170 640.446045,277.538361 
	C641.613770,276.993164 642.781494,276.447998 643.988770,275.973633 
	C643.988770,275.973633 643.910278,275.953156 644.576660,275.902374 
z"/>
<path fill="#212121" opacity="1.000000" stroke="none" 
	d="
M1024.500000,1025.000000 
	C1024.001587,686.039917 1023.989258,347.079803 1024.133301,8.119781 
	C1024.135498,2.818926 1022.513794,1.894486 1017.657532,1.896065 
	C681.197205,2.005464 344.736847,2.006494 8.276498,1.886466 
	C3.290843,1.884687 1.872842,3.015914 1.874889,8.184687 
	C2.009056,346.810669 1.996994,685.436707 1.998910,1024.531372 
	C1.666671,1024.833374 1.056205,1024.684326 1.044465,1024.497437 
	C0.961014,1023.169556 1.000000,1021.834045 1.000000,1020.500916 
	C1.000000,680.722778 1.000000,340.944641 1.000000,1.083242 
	C342.222382,1.083242 683.444824,1.083242 1025.000000,1.083242 
	C1025.000000,342.333252 1025.000000,683.666626 1024.500000,1025.000000 
z"/>
<path fill="#FEFEFE" opacity="1.000000" stroke="none" 
	d="
M455.923645,316.007446 
	C455.957794,314.608856 455.991943,313.210266 456.006531,311.024597 
	C455.671143,308.819550 455.355347,307.401550 455.039551,305.983551 
	C455.037231,305.535095 455.034912,305.086670 454.954224,303.948975 
	C453.608032,300.766022 452.340179,298.272278 451.072357,295.778564 
	C446.261597,287.320526 437.990509,284.318970 429.303101,281.974976 
	C428.512085,281.761536 427.717743,281.560486 426.213318,281.211212 
	C425.299286,281.104675 425.096893,281.140594 424.894531,281.176514 
	C424.353027,281.121552 423.811523,281.066589 422.744202,280.933655 
	C421.149811,280.615875 420.081268,280.376129 419.012726,280.136383 
	C418.571777,280.064758 418.130859,279.993164 417.076294,279.667542 
	C412.978638,278.978271 409.494598,278.543030 406.010529,278.107788 
	C405.254486,278.047577 404.498413,277.987366 403.028503,277.845520 
	C400.880768,277.556641 399.446930,277.349335 398.013092,277.142029 
	C396.944763,277.061035 395.876465,276.980042 394.123230,276.778625 
	C388.976868,276.049927 384.515411,275.441650 380.053925,274.833405 
	C380.053925,268.714813 380.053925,262.596222 380.053925,256.262695 
	C468.102264,256.262695 555.762085,256.262695 643.972778,256.262695 
	C643.972778,261.553467 643.972778,266.820465 643.989136,272.913818 
	C643.973816,274.477814 643.942078,275.215485 643.910278,275.953156 
	C643.910278,275.953156 643.988770,275.973633 643.626709,276.017212 
	C642.176819,276.374878 641.088989,276.688934 640.001160,277.002960 
	C638.598572,276.955170 637.196045,276.907349 634.960449,276.938446 
	C631.423279,277.357574 628.719055,277.697784 626.014832,278.037994 
	C624.932922,278.017273 623.851074,277.996582 622.045898,278.023163 
	C620.889282,278.145477 620.455872,278.220490 620.022461,278.295502 
	C610.384399,280.189575 600.590027,281.521484 591.155212,284.146210 
	C582.816162,286.466125 576.203918,291.705780 572.678772,300.843445 
	C571.979919,303.283722 571.554504,305.135773 571.129150,306.987793 
	C571.021423,307.727417 570.913574,308.467041 570.692810,309.962433 
	C570.385498,322.854156 570.034912,334.989960 570.025452,347.126038 
	C569.994873,386.413086 570.089539,425.700226 570.135986,464.987335 
	C570.081726,465.439514 570.027405,465.891724 569.988770,467.142090 
	C570.049133,477.955902 570.093750,487.971527 570.138367,497.987152 
	C570.084167,498.746552 570.029907,499.505951 569.992065,501.102905 
	C570.051453,511.289398 570.094299,520.638306 570.137207,529.987244 
	C570.083496,530.439636 570.029663,530.892029 569.992310,532.142578 
	C570.052246,541.622803 570.095764,550.304871 570.139221,558.987000 
	C570.084717,560.386719 570.030151,561.786438 569.992432,564.010681 
	C570.052368,566.219116 570.095581,567.603088 570.138794,568.987000 
	C570.084106,578.020264 570.029480,587.053467 569.991333,597.005493 
	C570.050903,601.611938 570.094055,605.299622 570.137146,608.987244 
	C570.082153,610.386719 570.027161,611.786194 569.989136,614.044189 
	C570.049377,617.597595 570.092590,620.292419 570.135742,622.987305 
	C570.081299,624.064026 570.026855,625.140747 569.988770,627.047363 
	C570.049011,629.913879 570.092773,631.950623 570.136597,633.987305 
	C570.082092,636.040222 570.027649,638.093079 569.989563,641.039185 
	C570.049561,646.283997 570.093201,650.635620 570.136841,654.987305 
	C570.082153,656.064087 570.027588,657.140930 569.989685,659.079102 
	C570.313232,678.637451 570.619995,697.334412 570.926758,716.031311 
	C570.937195,716.778870 570.947754,717.526367 570.981934,719.029419 
	C572.641418,723.611633 574.277344,727.438354 575.913269,731.265137 
	C581.499390,740.167542 590.625793,743.239075 600.073364,744.934570 
	C614.425171,747.510315 628.924683,749.262756 643.962891,751.452393 
	C643.962891,756.736206 643.962891,762.834656 643.496216,769.459473 
	C575.152710,769.989136 507.275970,769.982361 439.399231,770.002075 
	C420.270447,770.007629 401.141632,770.090759 382.012848,770.138306 
	C381.543549,764.315308 381.074219,758.492310 380.545319,751.929810 
	C387.574341,751.263794 394.106506,751.041992 400.491150,749.954285 
	C412.465393,747.914185 424.549744,746.075439 436.219666,742.828064 
	C446.395416,739.996521 453.079529,732.674988 455.444275,721.220825 
	C455.749664,719.382935 455.803009,718.198120 455.856354,717.013245 
	C455.942474,716.565613 456.028595,716.117981 456.150208,714.875732 
	C456.115234,686.723633 456.044739,659.366272 456.076721,631.614929 
	C456.109375,630.144531 456.039551,629.068054 456.040588,627.528198 
	C456.118378,584.821350 456.145599,542.577820 456.124603,500.334351 
	C456.111786,474.559479 456.024780,448.784698 456.073425,422.558105 
	C456.106995,418.401398 456.038239,414.696503 456.040802,410.528198 
	C456.134674,389.819275 456.190033,369.573761 456.166901,349.328278 
	C456.154205,338.221283 456.009033,327.114380 455.923645,316.007446 
z"/>
<path fill="#030304" opacity="1.000000" stroke="none" 
	d="
M382.112488,770.523621 
	C401.141632,770.090759 420.270447,770.007629 439.399231,770.002075 
	C507.275970,769.982361 575.152710,769.989136 643.490845,769.918701 
	C642.543701,770.565063 641.146851,771.868530 639.724731,771.896790 
	C630.397766,772.082397 621.065430,771.992554 611.734802,771.992554 
	C537.256531,771.992554 462.778290,772.001160 388.300049,771.947144 
	C386.270508,771.945679 384.241394,771.270142 382.112488,770.523621 
z"/>
<path fill="#212121" opacity="1.000000" stroke="none" 
	d="
M455.969727,627.991577 
	C456.039551,629.068054 456.109375,630.144531 455.776337,631.904663 
	C455.248260,634.402100 455.016571,636.215698 455.013794,638.029602 
	C454.974701,663.686401 454.966705,689.343201 454.951172,715.000000 
	C454.632568,713.263367 454.035583,711.526855 454.035004,709.790100 
	C453.991913,580.208679 453.994751,450.627289 454.012268,321.045868 
	C454.012482,319.566620 454.252350,318.087341 454.682800,316.771973 
	C454.990479,346.393616 454.977844,375.851410 455.042389,405.309021 
	C455.046539,407.203888 455.646637,409.097412 455.969513,410.991577 
	C456.038239,414.696503 456.106995,418.401398 455.773743,422.848358 
	C455.247864,424.570557 455.015930,425.550659 455.015656,426.530853 
	C454.998138,492.289032 454.993256,558.047180 455.039215,623.805359 
	C455.040192,625.200928 455.646057,626.596191 455.969727,627.991577 
z"/>
<path fill="#030304" opacity="1.000000" stroke="none" 
	d="
M570.520874,464.887390 
	C570.089539,425.700226 569.994873,386.413086 570.025452,347.126038 
	C570.034912,334.989960 570.385498,322.854156 570.732544,310.335754 
	C571.252747,311.659363 571.939270,313.365082 571.941223,315.071594 
	C571.997375,363.283905 571.995422,411.496246 571.937500,459.708557 
	C571.935486,461.401947 571.264771,463.094513 570.520874,464.887390 
z"/>
<path fill="#030304" opacity="1.000000" stroke="none" 
	d="
M571.237305,715.746033 
	C570.619995,697.334412 570.313232,678.637451 570.071533,659.476685 
	C570.747375,659.836487 571.892151,660.661316 571.890442,661.483765 
	C571.852966,679.476257 571.688232,697.468506 571.237305,715.746033 
z"/>
<path fill="#030304" opacity="1.000000" stroke="none" 
	d="
M456.040802,410.528198 
	C455.646637,409.097412 455.046539,407.203888 455.042389,405.309021 
	C454.977844,375.851410 454.990479,346.393616 454.967041,316.467346 
	C454.948792,315.998779 455.436340,315.989838 455.679993,315.998657 
	C456.009033,327.114380 456.154205,338.221283 456.166901,349.328278 
	C456.190033,369.573761 456.134674,389.819275 456.040802,410.528198 
z"/>
<path fill="#030304" opacity="1.000000" stroke="none" 
	d="
M455.207336,715.007812 
	C454.966705,689.343201 454.974701,663.686401 455.013794,638.029602 
	C455.016571,636.215698 455.248260,634.402100 455.673859,632.298584 
	C456.044739,659.366272 456.115234,686.723633 456.080719,714.539307 
	C455.804993,715.003540 455.634216,715.009644 455.207336,715.007812 
z"/>
<path fill="#030304" opacity="1.000000" stroke="none" 
	d="
M570.522827,497.886505 
	C570.093750,487.971527 570.049133,477.955902 570.069824,467.476440 
	C570.746338,467.834045 571.878174,468.648895 571.888733,469.477936 
	C572.001526,478.387054 571.954651,487.298553 571.878540,496.208771 
	C571.874023,496.737183 571.245483,497.260284 570.522827,497.886505 
z"/>
<path fill="#030304" opacity="1.000000" stroke="none" 
	d="
M570.521790,529.886963 
	C570.094299,520.638306 570.051453,511.289398 570.074036,501.476685 
	C570.749817,501.834625 571.878357,502.649048 571.890015,503.479218 
	C572.005859,511.721741 571.955566,519.967041 571.877014,528.210815 
	C571.872009,528.739136 571.244385,529.261536 570.521790,529.886963 
z"/>
<path fill="#030304" opacity="1.000000" stroke="none" 
	d="
M570.523438,558.886108 
	C570.095764,550.304871 570.052246,541.622803 570.073975,532.476807 
	C570.749634,532.833557 571.876953,533.645935 571.890076,534.476013 
	C572.010559,542.052429 571.957275,549.632141 571.876892,557.210083 
	C571.871277,557.738464 571.245178,558.260315 570.523438,558.886108 
z"/>
<path fill="#030304" opacity="1.000000" stroke="none" 
	d="
M570.519653,654.888062 
	C570.093201,650.635620 570.049561,646.283997 570.071289,641.472534 
	C573.664795,645.422852 572.130432,650.114380 570.519653,654.888062 
z"/>
<path fill="#030304" opacity="1.000000" stroke="none" 
	d="
M380.098419,275.217896 
	C384.515411,275.441650 388.976868,276.049927 393.722229,276.819885 
	C389.141083,278.974030 384.518951,278.524963 380.098419,275.217896 
z"/>
<path fill="#030304" opacity="1.000000" stroke="none" 
	d="
M570.517578,608.889404 
	C570.094055,605.299622 570.050903,601.611938 570.073242,597.468628 
	C573.617432,600.731262 572.220337,604.763855 570.517578,608.889404 
z"/>
<path fill="#030304" opacity="1.000000" stroke="none" 
	d="
M575.937134,730.864502 
	C574.277344,727.438354 572.641418,723.611633 571.063049,719.398193 
	C572.734070,722.828918 574.347534,726.646423 575.937134,730.864502 
z"/>
<path fill="#030304" opacity="1.000000" stroke="none" 
	d="
M406.073212,278.446045 
	C409.494598,278.543030 412.978638,278.978271 416.739319,279.685913 
	C413.389252,279.566956 409.762573,279.175629 406.073212,278.446045 
z"/>
<path fill="#030304" opacity="1.000000" stroke="none" 
	d="
M626.235840,278.303650 
	C628.719055,277.697784 631.423279,277.357574 634.558167,277.066284 
	C632.641235,280.512451 629.582153,279.734894 626.235840,278.303650 
z"/>
<path fill="#030304" opacity="1.000000" stroke="none" 
	d="
M570.508789,622.895325 
	C570.092590,620.292419 570.049377,617.597595 570.070923,614.457642 
	C573.439331,616.683472 572.194092,619.740601 570.508789,622.895325 
z"/>
<path fill="#030304" opacity="1.000000" stroke="none" 
	d="
M570.498901,633.903259 
	C570.092773,631.950623 570.049011,629.913879 570.070312,627.444885 
	C573.168701,628.983765 572.461853,631.353821 570.498901,633.903259 
z"/>
<path fill="#030304" opacity="1.000000" stroke="none" 
	d="
M451.054321,296.169128 
	C452.340179,298.272278 453.608032,300.766022 454.868591,303.623474 
	C453.586365,301.511383 452.311340,299.035553 451.054321,296.169128 
z"/>
<path fill="#030304" opacity="1.000000" stroke="none" 
	d="
M398.068817,277.473694 
	C399.446930,277.349335 400.880768,277.556641 402.653107,277.922089 
	C401.160797,281.680176 399.667358,279.305725 398.068817,277.473694 
z"/>
<path fill="#030304" opacity="1.000000" stroke="none" 
	d="
M571.467529,306.922913 
	C571.554504,305.135773 571.979919,303.283722 572.684326,301.208893 
	C572.577576,302.943420 572.191711,304.900726 571.467529,306.922913 
z"/>
<path fill="#030304" opacity="1.000000" stroke="none" 
	d="
M570.483765,568.915894 
	C570.095581,567.603088 570.052368,566.219116 570.074646,564.424133 
	C572.884277,565.265259 572.618225,566.946533 570.483765,568.915894 
z"/>
<path fill="#030304" opacity="1.000000" stroke="none" 
	d="
M454.762207,306.209167 
	C455.355347,307.401550 455.671143,308.819550 455.924316,310.612366 
	C455.402740,309.469727 454.943787,307.952271 454.762207,306.209167 
z"/>
<path fill="#030304" opacity="1.000000" stroke="none" 
	d="
M455.516418,717.080444 
	C455.803009,718.198120 455.749664,719.382935 455.454041,720.830322 
	C455.200012,719.777771 455.188232,718.462769 455.516418,717.080444 
z"/>
<path fill="#030304" opacity="1.000000" stroke="none" 
	d="
M640.223633,277.270660 
	C641.088989,276.688934 642.176819,276.374878 643.606934,275.981812 
	C642.781494,276.447998 641.613770,276.993164 640.223633,277.270660 
z"/>
<path fill="#030304" opacity="1.000000" stroke="none" 
	d="
M419.111206,280.519928 
	C420.081268,280.376129 421.149811,280.615875 422.488464,281.043884 
	C421.575653,281.122589 420.392670,281.013031 419.111206,280.519928 
z"/>
<path fill="#030304" opacity="1.000000" stroke="none" 
	d="
M644.243469,275.927765 
	C643.942078,275.215485 643.973816,274.477814 644.070801,273.376404 
	C644.282959,273.975891 644.429810,274.939148 644.243469,275.927765 
z"/>
<path fill="#030304" opacity="1.000000" stroke="none" 
	d="
M620.080933,278.563171 
	C620.455872,278.220490 620.889282,278.145477 621.653320,278.127869 
	C621.686951,278.665253 621.390015,279.145203 621.093140,279.625183 
	C620.775208,279.360413 620.457275,279.095642 620.080933,278.563171 
z"/>
<path fill="#030304" opacity="1.000000" stroke="none" 
	d="
M424.954224,281.477844 
	C425.096893,281.140594 425.299286,281.104675 425.793762,281.167419 
	C425.728546,281.437164 425.371246,281.608185 424.954224,281.477844 
z"/>
<path fill="#030304" opacity="1.000000" stroke="none" 
	d="
M456.040588,627.528198 
	C455.646057,626.596191 455.040192,625.200928 455.039215,623.805359 
	C454.993256,558.047180 454.998138,492.289032 455.015656,426.530853 
	C455.015930,425.550659 455.247864,424.570557 455.671387,423.300110 
	C456.024780,448.784698 456.111786,474.559479 456.124603,500.334351 
	C456.145599,542.577820 456.118378,584.821350 456.040588,627.528198 
z"/>
</svg>